<?xml version="1.0" standalone="no"?><!DOCTYPE svg PUBLIC "-//W3C//DTD SVG 1.1//EN" "http://www.w3.org/Graphics/SVG/1.1/DTD/svg11.dtd"><svg t="1668588157024" class="icon" viewBox="0 0 1024 1024" version="1.1" xmlns="http://www.w3.org/2000/svg" p-id="1919" xmlns:xlink="http://www.w3.org/1999/xlink" width="128" height="128"><path d="M768 328.533333h-25.6C682.666667 183.466667 541.866667 85.333333 384 85.333333c-213.333333 0-384 170.666667-384 384 0 110.933333 46.933333 213.333333 132.266667 290.133334 4.266667 4.266667 17.066667 8.533333 25.6 8.533333 12.8 0 25.6-4.266667 34.133333-12.8 17.066667-17.066667 12.8-42.666667-4.266667-59.733333C123.733333 635.733333 85.333333 554.666667 85.333333 469.333333c0-166.4 132.266667-298.666667 298.666667-298.666666 132.266667 0 251.733333 89.6 285.866667 217.6 4.266667 21.333333 29.866667 34.133333 51.2 29.866666 17.066667-4.266667 29.866667-8.533333 42.666666-8.533333 93.866667 0 170.666667 76.8 170.666667 170.666667 0 42.666667-17.066667 81.066667-42.666667 115.2-17.066667 17.066667-12.8 42.666667 4.266667 59.733333 17.066667 17.066667 42.666667 12.8 59.733333-4.266667 42.666667-46.933333 68.266667-106.666667 68.266667-170.666666 0-136.533333-115.2-251.733333-256-251.733334z" p-id="1920"></path><path d="M571.733333 576l-209.066666-42.666667c-12.8-4.266667-29.866667 0-38.4 12.8s-12.8 25.6-12.8 38.4l42.666666 209.066667c8.533333 34.133333 25.6 64 51.2 89.6 34.133333 34.133333 81.066667 55.466667 128 55.466667s93.866667-17.066667 128-55.466667c72.533333-72.533333 72.533333-187.733333 0-260.266667-25.6-21.333333-55.466667-38.4-89.6-46.933333z m29.866667 247.466667c-38.4 38.4-98.133333 38.4-136.533333 0-17.066667-17.066667-29.866667-42.666667-29.866667-68.266667 0-25.6 8.533333-51.2 29.866667-68.266667 17.066667-17.066667 42.666667-29.866667 68.266666-29.866666 25.6 0 51.2 8.533333 68.266667 29.866666 38.4 38.4 38.4 98.133333 0 136.533334z" p-id="1921"></path></svg>