<?xml version="1.0" standalone="no"?><!DOCTYPE svg PUBLIC "-//W3C//DTD SVG 1.1//EN" "http://www.w3.org/Graphics/SVG/1.1/DTD/svg11.dtd"><svg t="1668494180476" class="icon" viewBox="0 0 1024 1024" version="1.1" xmlns="http://www.w3.org/2000/svg" p-id="4004" width="128" height="128" xmlns:xlink="http://www.w3.org/1999/xlink"><path d="M740 866H284c-18 0-30 36-30 36v30h516v-36c0-18-12-30-30-30zM836 92H188C134 92 92 140 92 194V662c0 54 42 102 96 102h228v36c0 18 12 36 30 36h132c18 0 30-18 30-36v-36h228c54 0 96-48 96-102V194C932 140 890 92 836 92zM188 632c-18 0-30-18-30-36V194c0-18 12-36 30-36h648c18 0 30 18 30 36v402c0 18-12 36-30 36H188z m558-390L638 350l-72-72c-6-6-18-12-24-12-12 6-18 12-24 18L422 458l-42-102c-6-12-12-18-24-18s-24 0-30 12L230 446c-12 12-12 36 0 48 12 12 36 12 48 0l60-66 48 120c6 12 12 24 24 24s24-6 30-18l108-198 66 72c12 12 36 12 48 0l132-132c12-12 12-36 0-48-12-18-36-18-48-6z m0 0" p-id="4005"></path></svg>