<svg width="44" height="44" viewBox="0 0 44 44" fill="none" xmlns="http://www.w3.org/2000/svg">
<rect width="44" height="44" rx="20" fill="#008DFF"/>
<g clip-path="url(#clip0_300_16526)">
<path fill-rule="evenodd" clip-rule="evenodd" d="M32.5 31.282V27.1567H32.5012C32.5013 27.0121 32.4479 26.8727 32.3511 26.7653C32.2543 26.658 32.1211 26.5904 31.9773 26.5757C31.7113 26.55 31.4978 26.5243 31.3357 26.501C29.7182 26.2701 28.1449 25.7962 26.669 25.0952C26.5549 25.0413 26.4254 25.0292 26.3032 25.0609C26.1811 25.0927 26.0739 25.1663 26.0005 25.269L24.2038 27.782C20.617 26.2426 17.7585 23.3842 16.2192 19.7973L18.7368 17.9983C18.9468 17.849 19.0192 17.5702 18.9083 17.3368C18.206 15.8608 17.7309 14.2871 17.499 12.669C17.4757 12.5068 17.4512 12.2933 17.4243 12.025C17.4099 11.881 17.3424 11.7475 17.235 11.6505C17.1276 11.5535 16.988 11.4999 16.8433 11.5H12.718C12.4226 11.4999 12.1382 11.6118 11.9221 11.8131C11.706 12.0145 11.5743 12.2904 11.5537 12.585C11.5175 13.0948 11.5 13.5113 11.5 13.8333C11.5 24.1432 19.8568 32.5 30.1667 32.5C30.4887 32.5 30.9052 32.4813 31.415 32.4463C31.7096 32.4257 31.9855 32.294 32.1869 32.0779C32.3882 31.8618 32.5001 31.5774 32.5 31.282ZM27.1666 20.3334C26.8019 19.9688 26.3074 19.7639 25.7917 19.7639V21.7083H27.7361C27.7361 21.1926 27.5312 20.6981 27.1666 20.3334ZM31.1389 21.7083C31.1389 18.7552 28.7448 16.3611 25.7917 16.3611V17.3333C26.952 17.3333 28.0648 17.7943 28.8853 18.6147C29.7057 19.4352 30.1667 20.548 30.1667 21.7083H31.1389ZM34.5417 21.7083C34.5417 16.8759 30.6241 12.9583 25.7917 12.9583V13.9306C30.0874 13.9306 33.5694 17.4126 33.5694 21.7083H34.5417Z" fill="white"/>
</g>
<defs>
<clipPath id="clip0_300_16526">
<rect width="28" height="28" fill="white" transform="translate(8 8)"/>
</clipPath>
</defs>
</svg>
