<?xml version="1.0" standalone="no"?><!DOCTYPE svg PUBLIC "-//W3C//DTD SVG 1.1//EN" "http://www.w3.org/Graphics/SVG/1.1/DTD/svg11.dtd"><svg t="1670679790511" class="icon" viewBox="0 0 1024 1024" version="1.1" xmlns="http://www.w3.org/2000/svg" p-id="6412" xmlns:xlink="http://www.w3.org/1999/xlink" width="200" height="200"><path d="M764.860624 946.487625l-18.420266 0 0-10.233062 18.420266 0L764.860624 946.487625 764.860624 946.487625zM705.506432 946.487625l-18.420266 0 0-10.233062 18.420266 0L705.506432 946.487625 705.506432 946.487625zM646.152241 946.487625l-18.420266 0 0-10.233062 18.420266 0L646.152241 946.487625 646.152241 946.487625zM586.79805 946.487625l-18.420266 0 0-10.233062 18.420266 0L586.79805 946.487625 586.79805 946.487625zM527.443858 946.487625l-18.420266 0 0-10.233062 18.420266 0L527.443858 946.487625 527.443858 946.487625zM468.089667 946.487625l-18.420266 0 0-10.233062 18.420266 0L468.089667 946.487625 468.089667 946.487625zM408.735476 946.487625l-18.420266 0 0-10.233062 18.420266 0L408.735476 946.487625 408.735476 946.487625zM349.381284 946.487625l-18.420266 0 0-10.233062 18.420266 0L349.381284 946.487625 349.381284 946.487625zM290.027093 946.487625l-18.420266 0 0-10.233062 18.420266 0L290.027093 946.487625 290.027093 946.487625zM88.426488 789.9228l-10.233481 0 0-16.372899 10.233481 0L88.426488 789.9228 88.426488 789.9228zM948.039939 785.825482l-10.233481 0 0-18.419512 10.233481 0L948.039939 785.825482 948.039939 785.825482zM88.426488 732.617653l-10.233481 0 0-18.419512 10.233481 0L88.426488 732.617653 88.426488 732.617653zM948.039939 726.473723l-10.233481 0 0-18.419512 10.233481 0L948.039939 726.473723 948.039939 726.473723zM88.426488 673.265894l-10.233481 0 0-18.419512 10.233481 0L88.426488 673.265894 88.426488 673.265894zM948.039939 667.121963l-10.233481 0 0-18.419512 10.233481 0L948.039939 667.121963 948.039939 667.121963zM88.426488 613.914134l-10.233481 0 0-18.419512 10.233481 0L88.426488 613.914134 88.426488 613.914134zM948.039939 607.770204l-10.233481 0 0-18.419512 10.233481 0L948.039939 607.770204 948.039939 607.770204zM88.426488 554.562375l-10.233481 0 0-18.419512 10.233481 0L88.426488 554.562375 88.426488 554.562375zM948.039939 548.418444l-10.233481 0 0-18.419512 10.233481 0L948.039939 548.418444 948.039939 548.418444zM88.426488 495.210615l-10.233481 0 0-18.419512 10.233481 0L88.426488 495.210615 88.426488 495.210615zM948.039939 489.066685l-10.233481 0 0-18.419512 10.233481 0L948.039939 489.066685 948.039939 489.066685zM88.426488 435.858856l-10.233481 0 0-18.419512 10.233481 0L88.426488 435.858856 88.426488 435.858856zM948.039939 429.714925l-10.233481 0 0-18.419512 10.233481 0L948.039939 429.714925 948.039939 429.714925zM88.426488 376.507096l-10.233481 0 0-18.419512 10.233481 0L88.426488 376.507096 88.426488 376.507096zM948.039939 370.363166l-10.233481 0 0-18.419512 10.233481 0L948.039939 370.363166 948.039939 370.363166zM88.426488 317.155337l-10.233481 0 0-18.419512 10.233481 0L88.426488 317.155337 88.426488 317.155337zM948.039939 311.011406l-10.233481 0 0-18.419512 10.233481 0L948.039939 311.011406 948.039939 311.011406zM88.426488 257.803577l-10.233481 0 0-18.419512 10.233481 0L88.426488 257.803577 88.426488 257.803577zM948.039939 251.659647l-10.233481 0 0-18.419512 10.233481 0L948.039939 251.659647 948.039939 251.659647zM756.670769 86.909395l-18.420266 0 0-10.233062 18.420266 0L756.670769 86.909395 756.670769 86.909395zM697.317601 86.909395l-18.420266 0 0-10.233062 18.420266 0L697.317601 86.909395 697.317601 86.909395zM637.963409 86.909395l-18.420266 0 0-10.233062 18.420266 0L637.963409 86.909395 637.963409 86.909395zM578.609218 86.909395l-18.420266 0 0-10.233062 18.420266 0L578.609218 86.909395 578.609218 86.909395zM519.255027 86.909395l-18.420266 0 0-10.233062 18.420266 0L519.255027 86.909395 519.255027 86.909395zM459.900835 86.909395l-18.420266 0 0-10.233062 18.420266 0L459.900835 86.909395 459.900835 86.909395zM400.546644 86.909395l-18.420266 0 0-10.233062 18.420266 0L400.546644 86.909395 400.546644 86.909395zM341.192452 86.909395l-18.420266 0 0-10.233062 18.420266 0L341.192452 86.909395 341.192452 86.909395zM281.838261 86.909395l-18.420266 0 0-10.233062 18.420266 0L281.838261 86.909395 281.838261 86.909395zM75.656127 947.957093l155.618503 0L231.27463 792.269241 75.656127 792.269241 75.656127 947.957093zM793.39464 947.957093l155.604176 0L948.998816 792.269241 793.39464 792.269241 793.39464 947.957093zM793.39464 74.139557l0 155.688875 155.604176 0L948.998816 74.139557 793.39464 74.139557zM75.656127 229.828432l155.618503 0L231.27463 74.139557 75.656127 74.139557 75.656127 229.828432zM671.369586 496.90214 365.919613 268.433682 409.915396 648.725988 495.789654 536.074302 612.952781 740.223888 647.216523 720.328769 529.721831 515.599991Z" p-id="6413" fill="#ffffff"></path></svg>