<svg width="11" height="10" viewBox="0 0 11 10" fill="none" xmlns="http://www.w3.org/2000/svg">
<path d="M2.3355 1.12851L6.207 5.00001L5.5 5.70701L3.777 3.98401C3.55567 4.35927 3.46293 4.79655 3.51288 5.22935C3.56284 5.66216 3.75275 6.06681 4.05374 6.38179C4.35474 6.69678 4.75036 6.90486 5.18045 6.9744C5.61054 7.04394 6.05157 6.97115 6.4365 6.76707C6.82143 6.563 7.12919 6.23882 7.31299 5.84381C7.4968 5.44881 7.54659 5.00459 7.4548 4.57869C7.36302 4.15279 7.13467 3.76851 6.80448 3.48428C6.47429 3.20005 6.06032 3.03141 5.6255 3.00401L4.723 2.10151C5.40512 1.91858 6.12991 1.98217 6.76976 2.28107C7.40961 2.57997 7.9235 3.09502 8.22096 3.73555C8.51841 4.37607 8.58036 5.101 8.3959 5.7827C8.21144 6.46441 7.7924 7.05919 7.21255 7.46232C6.63269 7.86546 5.9292 8.05111 5.22593 7.98658C4.52267 7.92205 3.86471 7.61149 3.3679 7.10956C2.87108 6.60764 2.56727 5.94654 2.50994 5.24265C2.45262 4.53875 2.64545 3.8372 3.0545 3.26151L2.34 2.54701C1.74374 3.31568 1.44805 4.27531 1.50827 5.24626C1.56849 6.21722 1.98049 7.13296 2.66716 7.82207C3.35382 8.51118 4.26809 8.92643 5.23883 8.99009C6.20957 9.05375 7.17024 8.76147 7.94102 8.16794C8.71181 7.57442 9.23988 6.72034 9.4264 5.76556C9.61291 4.81078 9.44508 3.82076 8.95432 2.98079C8.46356 2.14083 7.68352 1.5085 6.76018 1.20216C5.83685 0.895821 4.83353 0.936473 3.938 1.31651L3.187 0.566006C3.90087 0.193015 4.69457 -0.00120683 5.5 5.64212e-06C8.2615 5.64212e-06 10.5 2.23851 10.5 5.00001C10.5 7.76151 8.2615 10 5.5 10C2.7385 10 0.500003 7.76151 0.500003 5.00001C0.499249 4.25888 0.663589 3.5269 0.981084 2.85723C1.29858 2.18756 1.76126 1.59702 2.3355 1.12851V1.12851Z" fill="#F0882C"/>
</svg>
