<svg width="12" height="8" viewBox="0 0 12 8" fill="none" xmlns="http://www.w3.org/2000/svg">
<path d="M1.9645 0.464508L2.6715 1.17151C1.9475 1.89551 1.5 2.89551 1.5 4.00001C1.5 5.10501 1.9475 6.10501 2.6715 6.82851L1.965 7.53501C1.0595 6.63051 0.5 5.38051 0.5 4.00001C0.5 2.61951 1.06 1.36951 1.9645 0.464508ZM10.0355 0.464508C10.9405 1.36951 11.5 2.61951 11.5 4.00001C11.5 5.38051 10.94 6.63101 10.0355 7.53551L9.3285 6.82851C10.0525 6.10451 10.5 5.10451 10.5 4.00001C10.5 2.89551 10.0525 1.89601 9.329 1.17201L10.035 0.465008L10.0355 0.464508ZM6.5 0.500008V3.50001H8L5.5 7.50001V4.50001H4L6.5 0.500008ZM3.3785 1.87851L4.086 2.58601C3.724 2.94751 3.5 3.44751 3.5 4.00001C3.5 4.55251 3.724 5.05251 4.086 5.41401L3.3785 6.12151C2.836 5.57851 2.5 4.82851 2.5 4.00001C2.5 3.17151 2.836 2.42151 3.3785 1.87851ZM8.622 1.87901C9.1645 2.42201 9.5 3.17201 9.5 4.00001C9.5 4.82851 9.164 5.57851 8.6215 6.12151L7.914 5.41401C8.276 5.05251 8.5 4.55251 8.5 4.00001C8.5 3.44801 8.2765 2.94801 7.915 2.58651L8.622 1.87901Z" fill="#3680FC"/>
</svg>
