<svg width="44" height="44" viewBox="0 0 44 44" fill="none" xmlns="http://www.w3.org/2000/svg">
<rect width="44" height="44" rx="20" fill="#16CE8C"/>
<g clip-path="url(#clip0_300_16535)">
<path d="M26 14C26.2652 14 26.5196 14.1054 26.7071 14.2929C26.8946 14.4804 27 14.7348 27 15V19.2L32.213 15.55C32.288 15.4975 32.3759 15.4665 32.4672 15.4605C32.5586 15.4545 32.6498 15.4737 32.731 15.516C32.8122 15.5583 32.8802 15.6221 32.9276 15.7004C32.9751 15.7786 33.0001 15.8685 33 15.96V28.04C33.0001 28.1315 32.9751 28.2214 32.9276 28.2996C32.8802 28.3779 32.8122 28.4417 32.731 28.484C32.6498 28.5263 32.5586 28.5455 32.4672 28.5395C32.3759 28.5335 32.288 28.5025 32.213 28.45L27 24.8V29C27 29.2652 26.8946 29.5196 26.7071 29.7071C26.5196 29.8946 26.2652 30 26 30H12C11.7348 30 11.4804 29.8946 11.2929 29.7071C11.1054 29.5196 11 29.2652 11 29V15C11 14.7348 11.1054 14.4804 11.2929 14.2929C11.4804 14.1054 11.7348 14 12 14H26ZM17.4 18.829C17.3078 18.829 17.2184 18.8608 17.147 18.9191C17.0755 18.9774 17.0264 19.0587 17.008 19.149L17 19.228V24.77C17 24.8348 17.0157 24.8986 17.0458 24.9559C17.0759 25.0133 17.1195 25.0625 17.1728 25.0993C17.2261 25.1361 17.2876 25.1594 17.3519 25.1672C17.4162 25.1749 17.4814 25.167 17.542 25.144L17.615 25.108L21.97 22.336C22.0208 22.3035 22.0636 22.2599 22.0952 22.2085C22.1268 22.1571 22.1464 22.0993 22.1524 22.0392C22.1585 21.9792 22.1509 21.9186 22.1302 21.8619C22.1095 21.8053 22.0763 21.754 22.033 21.712L21.97 21.662L17.615 18.89C17.5505 18.85 17.4759 18.8292 17.4 18.83V18.829Z" fill="white"/>
</g>
<defs>
<clipPath id="clip0_300_16535">
<rect width="24" height="24" fill="white" transform="translate(10 10)"/>
</clipPath>
</defs>
</svg>
