<?xml version="1.0" standalone="no"?><!DOCTYPE svg PUBLIC "-//W3C//DTD SVG 1.1//EN" "http://www.w3.org/Graphics/SVG/1.1/DTD/svg11.dtd"><svg t="1670679181772" class="icon" viewBox="0 0 1024 1024" version="1.1" xmlns="http://www.w3.org/2000/svg" p-id="2074" xmlns:xlink="http://www.w3.org/1999/xlink" width="200" height="200"><path d="M812.3904 364.4928A76.8 76.8 0 0 1 742.4 409.6h-36.1984a25.6 25.6 0 0 1 0-51.2h36.1984a25.6 25.6 0 0 0 25.6-25.6v-102.4a25.6 25.6 0 0 0-25.6-25.6h-204.8a25.6 25.6 0 0 0-25.6 25.6v102.4a25.6 25.6 0 0 0 25.6 25.6h63.744a25.6 25.6 0 1 1 0 51.2H537.6A76.8 76.8 0 0 1 460.8 332.8v-102.4A76.8 76.8 0 0 1 537.6 153.6h204.8c27.0848 0 50.8928 14.0288 64.512 35.1744l62.8224-31.3856A35.84 35.84 0 0 1 921.6 189.44v171.6736a35.84 35.84 0 0 1-51.8656 32.0512l-57.344-28.672z m-477.4912 31.0272L253.3376 274.5856a25.6 25.6 0 0 0-39.3216-3.7888l-30.5152 30.5152a128 128 0 0 0-35.3792 113.664c18.3808 99.84 75.1616 197.632 171.1104 293.632 62.976 62.976 126.72 109.056 191.3344 138.496a25.6 25.6 0 1 1-21.248 46.592c-70.5024-32.1536-139.264-81.8176-206.2848-148.8896-102.8608-102.8608-164.864-209.7152-185.2928-320.512a179.2 179.2 0 0 1 49.5616-159.232l30.5152-30.464a76.8 76.8 0 0 1 117.9648 11.3664l83.9168 124.416a46.08 46.08 0 0 1-5.632 58.368l-31.232 31.232c-9.3696 48.8448 12.3904 100.608 68.4032 156.6208 56.064 56.0128 107.776 77.824 156.672 68.4032l31.232-31.232a46.08 46.08 0 0 1 58.3168-5.632l124.416 83.9168a76.8 76.8 0 0 1 11.4176 118.016l-23.9616 23.9104a179.2 179.2 0 0 1-158.72 49.6128 25.6 25.6 0 0 1 9.1648-50.3808 128 128 0 0 0 113.3568-35.4304l23.9616-23.9616a25.6 25.6 0 0 0-3.84-39.3216l-120.9344-81.5104-38.4512 38.4512-6.8608 1.7408c-70.6048 17.7152-141.7728-10.24-211.968-80.384-70.144-70.144-98.0992-141.312-80.384-211.968l1.7408-6.8096 38.5024-38.5024z m491.6224-156.2624c-0.768 9.5232-1.2288 22.528-1.2288 35.9936a469.248 469.248 0 0 0 1.536 39.2192l43.5712 21.76V214.272l-43.5712 21.8112-0.3072 3.1744z" fill="#ffffff" p-id="2075"></path></svg>