<?xml version="1.0" encoding="UTF-8"?>
<svg width="24px" height="24px" viewBox="0 0 24 24" version="1.1" xmlns="http://www.w3.org/2000/svg" xmlns:xlink="http://www.w3.org/1999/xlink">
    <title>icon-own-ship-sail</title>
    <defs>
        <path d="M4.19575003,0 C3.91961003,0 3.69575003,0.223858 3.69575003,0.5 L3.69575003,4.07872 L0.0140998292,19.3831 C-0.0615520708,19.6975 0.176781029,20 0.500232029,20 L7.89140003,20 C8.21485003,20 8.45318003,19.6975 8.37753003,19.3831 L4.69575003,4.07821 L4.69575003,0.5 C4.69575003,0.223858 4.47189003,0 4.19575003,0 Z" id="path-1"></path>
    </defs>
    <g id="icon-own-ship-sail" stroke="none" stroke-width="1" fill="none" fill-rule="evenodd">
        <g id="Union" transform="translate(8.000000, 2.000000)">
            <path d="M4.19575003,0 C3.91961003,0 3.69575003,0.223858 3.69575003,0.5 L3.69575003,4.07872 L0.0140998292,19.3831 C-0.0615520708,19.6975 0.176781029,20 0.500232029,20 L7.89140003,20 C8.21485003,20 8.45318003,19.6975 8.37753003,19.3831 L4.69575003,4.07821 L4.69575003,0.5 C4.69575003,0.223858 4.47189003,0 4.19575003,0 Z" id="路径" fill="#F40000"></path>
            <g id="Clipped">
                <mask id="mask-2" fill="white">
                    <use xlink:href="#path-1"></use>
                </mask>
                <g id="路径"></g>
                <path d="M3.69575003,4.07872 L4.66802003,4.31261 L4.69575003,4.19731 L4.69575003,4.07872 L3.69575003,4.07872 Z M0.0140998292,19.3831 L-0.958162971,19.1492 L-0.958162971,19.1492 L0.0140998292,19.3831 Z M8.37753003,19.3831 L7.40526003,19.6169 L8.37753003,19.3831 Z M4.69575003,4.07821 L3.69575003,4.07821 L3.69575003,4.1968 L3.72349003,4.3121 L4.69575003,4.07821 Z M4.69575003,0.5 C4.69575003,0.776142 4.47189003,1 4.19575003,1 L4.19575003,-1 C3.36732003,-1 2.69575003,-0.328426 2.69575003,0.5 L4.69575003,0.5 Z M4.69575003,4.07872 L4.69575003,0.5 L2.69575003,0.5 L2.69575003,4.07872 L4.69575003,4.07872 Z M0.986363029,19.6169 L4.66802003,4.31261 L2.72349003,3.84483 L-0.958162971,19.1492 L0.986363029,19.6169 Z M0.500232029,19 C0.823681029,19 1.06201003,19.3025 0.986363029,19.6169 L-0.958162971,19.1492 C-1.18511997,20.0926 -0.470118971,21 0.500232029,21 L0.500232029,19 Z M7.89140003,19 L0.500232029,19 L0.500232029,21 L7.89140003,21 L7.89140003,19 Z M7.40526003,19.6169 C7.32961003,19.3025 7.56794003,19 7.89140003,19 L7.89140003,21 C8.86175003,21 9.57674003,20.0926 9.34979003,19.1492 L7.40526003,19.6169 Z M3.72349003,4.3121 L7.40526003,19.6169 L9.34979003,19.1492 L5.66802003,3.84432 L3.72349003,4.3121 Z M3.69575003,0.5 L3.69575003,4.07821 L5.69575003,4.07821 L5.69575003,0.5 L3.69575003,0.5 Z M4.19575003,1 C3.91961003,1 3.69575003,0.776142 3.69575003,0.5 L5.69575003,0.5 C5.69575003,-0.328427 5.02418003,-1 4.19575003,-1 L4.19575003,1 Z" id="形状" fill="#1C1A27" fill-rule="nonzero" mask="url(#mask-2)"></path>
            </g>
        </g>
    </g>
</svg>