<svg width="44" height="44" viewBox="0 0 44 44" fill="none" xmlns="http://www.w3.org/2000/svg">
<rect width="44" height="44" rx="20" fill="#2B59FF"/>
<g clip-path="url(#clip0_300_16505)">
<path d="M32.5 27.1567V31.282C32.5001 31.5774 32.3882 31.8618 32.1869 32.0779C31.9855 32.294 31.7096 32.4257 31.415 32.4463C30.9052 32.4813 30.4887 32.5 30.1667 32.5C19.8568 32.5 11.5 24.1432 11.5 13.8333C11.5 13.5113 11.5175 13.0948 11.5537 12.585C11.5743 12.2904 11.706 12.0145 11.9221 11.8131C12.1382 11.6118 12.4226 11.4999 12.718 11.5H16.8433C16.988 11.4999 17.1276 11.5535 17.235 11.6505C17.3424 11.7475 17.4099 11.881 17.4243 12.025C17.4512 12.2933 17.4757 12.5068 17.499 12.669C17.7309 14.2871 18.206 15.8608 18.9083 17.3368C19.0192 17.5702 18.9468 17.849 18.7368 17.9983L16.2192 19.7973C17.7585 23.3842 20.617 26.2426 24.2038 27.782L26.0005 25.269C26.0739 25.1663 26.1811 25.0927 26.3032 25.0609C26.4254 25.0292 26.5549 25.0413 26.669 25.0952C28.1449 25.7962 29.7182 26.2701 31.3357 26.501C31.4978 26.5243 31.7113 26.55 31.9773 26.5757C32.1211 26.5904 32.2543 26.658 32.3511 26.7653C32.4479 26.8727 32.5013 27.0121 32.5012 27.1567H32.5Z" fill="white"/>
</g>
<defs>
<clipPath id="clip0_300_16505">
<rect width="28" height="28" fill="white" transform="translate(8 8)"/>
</clipPath>
</defs>
</svg>
